<!DOCTYPE svg PUBLIC "-//W3C//DTD SVG 1.1//EN" "http://www.w3.org/Graphics/SVG/1.1/DTD/svg11.dtd">
<!-- Uploaded to: SVG Repo, www.svgrepo.com, Transformed by: SVG Repo Mixer Tools -->
<svg fill="#ffffff" height="64px" width="64px" version="1.1" id="Layer_1" xmlns="http://www.w3.org/2000/svg" xmlns:xlink="http://www.w3.org/1999/xlink" viewBox="0 0 511.893 511.893" xml:space="preserve" stroke="#ffffff">
<g id="SVGRepo_bgCarrier" stroke-width="0"/>
<g id="SVGRepo_tracerCarrier" stroke-linecap="round" stroke-linejoin="round"/>
<g id="SVGRepo_iconCarrier"> <g> <g> <path d="M391.253,255.947l117.76-104.96c2.56-2.56,3.413-5.973,2.56-9.387c-0.853-2.56-4.267-5.12-7.68-5.12h-376.32 c-1.707,0-4.267,0.853-5.973,2.56L4.693,245.707L3.84,246.56c-5.12,5.973-5.12,14.507,0,20.48l0.853,0.853L121.6,372.853 c1.707,1.707,4.267,2.56,5.973,2.56h376.32c3.413,0,6.827-2.56,7.68-5.12c0.853-3.413,0-6.827-2.56-9.387L391.253,255.947z M130.987,358.347l-113.493-102.4l113.493-102.4h350.72l-102.4,92.16c0,0-0.853,0-0.853,0.853c-5.12,5.973-5.12,14.507,0,20.48 l0.853,0.853l102.4,90.453H130.987z"/> </g> </g> </g>
</svg>